<svg xmlns="http://www.w3.org/2000/svg" width="1440" height="720" viewBox="0 0 1440 720" role="img" aria-labelledby="title desc">
  <title id="title">回响录 Echo Log 产品视觉概览</title>
  <desc id="desc">黑色背景上的三维专辑螺旋塔、评分卡片和音频播放界面</desc>
  <defs>
    <linearGradient id="bg" x1="0" y1="0" x2="1" y2="1"><stop stop-color="#0a0b0b"/><stop offset=".55" stop-color="#151817"/><stop offset="1" stop-color="#090a09"/></linearGradient>
    <linearGradient id="lime" x1="0" y1="0" x2="1" y2="1"><stop stop-color="#d6ff84"/><stop offset="1" stop-color="#8dda27"/></linearGradient>
    <linearGradient id="warm" x1="0" y1="0" x2="1" y2="1"><stop stop-color="#ff7658"/><stop offset="1" stop-color="#6532aa"/></linearGradient>
    <linearGradient id="cool" x1="0" y1="0" x2="1" y2="1"><stop stop-color="#90e9f1"/><stop offset="1" stop-color="#3156c8"/></linearGradient>
    <linearGradient id="pink" x1="0" y1="0" x2="1" y2="1"><stop stop-color="#ffacc9"/><stop offset="1" stop-color="#ae314c"/></linearGradient>
    <radialGradient id="glow"><stop stop-color="#b7ff40" stop-opacity=".2"/><stop offset="1" stop-color="#b7ff40" stop-opacity="0"/></radialGradient>
    <filter id="shadow" x="-50%" y="-50%" width="200%" height="200%"><feDropShadow dx="0" dy="18" stdDeviation="18" flood-color="#000" flood-opacity=".55"/></filter>
    <filter id="soft"><feGaussianBlur stdDeviation="35"/></filter>
    <pattern id="grain" width="80" height="80" patternUnits="userSpaceOnUse"><circle cx="3" cy="6" r=".7" fill="#fff" opacity=".05"/><circle cx="41" cy="25" r=".6" fill="#fff" opacity=".04"/><circle cx="69" cy="64" r=".8" fill="#fff" opacity=".03"/></pattern>
  </defs>
  <rect width="1440" height="720" rx="26" fill="url(#bg)"/>
  <circle cx="785" cy="370" r="390" fill="url(#glow)" filter="url(#soft)"/>
  <rect width="1440" height="720" rx="26" fill="url(#grain)"/>
  <g fill="#f1f0e9" font-family="Arial, 'Microsoft YaHei', sans-serif">
    <g transform="translate(64 52)">
      <circle cx="8" cy="8" r="7" fill="#b7ff40"/><text x="27" y="16" font-size="24" font-weight="700" letter-spacing="2">回响录</text><text x="119" y="16" font-size="13" fill="#8b908b" letter-spacing="2">ECHO LOG</text>
    </g>
    <text x="64" y="163" font-size="15" fill="#b7ff40" letter-spacing="4">LISTENING ARCHIVE / 001—100</text>
    <text x="62" y="232" font-size="54" font-weight="700">散落的声音，</text>
    <text x="62" y="296" font-size="54" font-weight="700" font-style="italic" fill="url(#lime)">重新回响。</text>
    <text x="65" y="347" font-size="17" fill="#a7aba7">旋转、探索并打开一张唱片。</text>
    <text x="65" y="375" font-size="17" fill="#a7aba7">评分、短评与一段真实的声音，都在这里。</text>
  </g>
  <g transform="translate(700 20)" filter="url(#shadow)">
    <ellipse cx="310" cy="352" rx="282" ry="305" fill="none" stroke="#b7ff40" stroke-opacity=".13" stroke-width="2"/>
    <ellipse cx="310" cy="352" rx="198" ry="306" fill="none" stroke="#fff" stroke-opacity=".06"/>
    <g transform="translate(230 58) rotate(-13)"><rect width="116" height="145" rx="4" fill="url(#pink)"/><circle cx="78" cy="48" r="28" fill="none" stroke="#fff" stroke-opacity=".35" stroke-width="2"/><text x="12" y="128" fill="#fff" font-family="Arial" font-size="10" font-weight="700">ARCHIVE 014</text></g>
    <g transform="translate(365 100) rotate(12)"><rect width="124" height="155" rx="4" fill="url(#cool)"/><path d="M12 106 Q62 22 112 106" fill="none" stroke="#fff" stroke-opacity=".55" stroke-width="3"/><text x="12" y="139" fill="#fff" font-family="Arial" font-size="10" font-weight="700">SOFT STATIC</text></g>
    <g transform="translate(98 167) rotate(-25)"><rect width="128" height="160" rx="4" fill="url(#warm)"/><circle cx="64" cy="68" r="36" fill="#191716" opacity=".62"/><circle cx="64" cy="68" r="10" fill="#f9c93a"/><text x="12" y="143" fill="#fff" font-family="Arial" font-size="10" font-weight="700">AFTERIMAGE</text></g>
    <g transform="translate(439 273) rotate(23)"><rect width="121" height="151" rx="4" fill="#e9e2cf"/><path d="M0 84 L121 26 V151 H0Z" fill="#d1a827"/><text x="12" y="21" fill="#222" font-family="Arial" font-size="10" font-weight="700">ECHO / 057</text></g>
    <g transform="translate(178 290) rotate(-5)"><rect width="156" height="195" rx="5" fill="#12191d" stroke="#b7ff40" stroke-width="2"/><circle cx="78" cy="75" r="48" fill="none" stroke="#b7ff40" stroke-opacity=".65" stroke-width="2"/><circle cx="78" cy="75" r="31" fill="none" stroke="#b7ff40" stroke-opacity=".45"/><circle cx="78" cy="75" r="10" fill="#b7ff40"/><text x="16" y="157" fill="#f2f4ed" font-family="Arial" font-size="16" font-weight="700">GLASS ROOMS</text><text x="16" y="176" fill="#8f968f" font-family="Arial" font-size="9">ECHO ARTIST</text></g>
    <g transform="translate(352 474) rotate(15)"><rect width="119" height="149" rx="4" fill="#f1a9be"/><path d="M16 15 H102 V134 H16Z" fill="none" stroke="#19382e" stroke-width="2"/><text x="25" y="82" fill="#19382e" font-family="Arial" font-size="15" font-weight="700">CHARM</text></g>
    <g transform="translate(65 425) rotate(-17)"><rect width="119" height="149" rx="4" fill="#224bcc"/><path d="M18 23 L100 126 M100 23 L18 126" stroke="#e9e4d6" stroke-width="3"/><text x="12" y="140" fill="#fff" font-family="Arial" font-size="9">ARCHIVE 082</text></g>
  </g>
  <g transform="translate(62 463)" font-family="Arial, 'Microsoft YaHei', sans-serif" filter="url(#shadow)">
    <rect width="478" height="180" rx="18" fill="#1d211f" stroke="#383d39"/>
    <circle cx="55" cy="58" r="30" fill="#b7ff40"/><path d="M49 45 L49 71 L69 58Z" fill="#111"/>
    <text x="105" y="39" fill="#8f968f" font-size="10" letter-spacing="2">NOW PLAYING</text>
    <text x="105" y="67" fill="#f1f0e9" font-size="18" font-weight="700">Afterimage</text>
    <text x="105" y="89" fill="#8f968f" font-size="11">Deezer 真实歌曲 30 秒试听</text>
    <text x="24" y="127" fill="#8f968f" font-size="10">0:12</text><rect x="58" y="121" width="365" height="4" rx="2" fill="#3d423e"/><rect x="58" y="121" width="157" height="4" rx="2" fill="#b7ff40"/><circle cx="215" cy="123" r="6" fill="#b7ff40"/><text x="433" y="127" fill="#8f968f" font-size="10">0:30</text>
    <line x1="24" y1="148" x2="454" y2="148" stroke="#333834"/><text x="25" y="169" fill="#8f968f" font-size="10">03</text><text x="62" y="169" fill="#f1f0e9" font-size="12" font-weight="700">Afterimage</text><text x="425" y="169" fill="#8f968f" font-size="10">3:42</text>
  </g>
  <g transform="translate(1167 502)" font-family="Arial, 'Microsoft YaHei', sans-serif" filter="url(#shadow)">
    <rect width="205" height="141" rx="18" fill="#eef0e8"/>
    <text x="20" y="27" fill="#616761" font-size="9" letter-spacing="2">CRITICAL INDEX</text>
    <text x="19" y="62" fill="#151715" font-size="35" font-weight="700">8.7</text><text x="78" y="60" fill="#505650" font-size="12">综合评分</text>
    <circle cx="22" cy="88" r="4" fill="#f06554"/><text x="34" y="92" fill="#333" font-size="10">豆瓣音乐</text><rect x="112" y="86" width="72" height="4" rx="2" fill="#c9ccc5"/><rect x="112" y="86" width="61" height="4" rx="2" fill="#91c82f"/>
    <circle cx="22" cy="111" r="4" fill="#7259d8"/><text x="34" y="115" fill="#333" font-size="10">AOTY</text><rect x="112" y="109" width="72" height="4" rx="2" fill="#c9ccc5"/><rect x="112" y="109" width="65" height="4" rx="2" fill="#91c82f"/>
  </g>
  <g font-family="Arial" font-size="10" fill="#717771" letter-spacing="2"><text x="64" y="684">REACT · THREE.JS · EXPRESS · SQLITE</text><text x="1166" y="684">SHANGHAI / CN — 2026</text></g>
</svg>
